<?xml version="1.0" standalone="no"?>
<!DOCTYPE svg PUBLIC "-//W3C//DTD SVG 20010904//EN"
 "http://www.w3.org/TR/2001/REC-SVG-20010904/DTD/svg10.dtd">
<svg version="1.0" xmlns="http://www.w3.org/2000/svg"
 width="300.000000pt" height="300.000000pt" viewBox="0 0 300.000000 300.000000"
 preserveAspectRatio="xMidYMid meet">
<metadata>
Created by potrace 1.10, written by Peter Selinger 2001-2011
</metadata>
<g transform="translate(0.000000,300.000000) scale(0.100000,-0.100000)"
fill="#000000" stroke="none">
<path d="M1170 2974 c-205 -43 -400 -154 -552 -312 -96 -100 -151 -179 -205
-298 -28 -62 -42 -82 -53 -78 -40 15 -110 15 -162 0 -99 -28 -188 -132 -188
-217 1 -33 1 -33 16 -14 9 11 25 39 36 62 26 54 86 109 135 122 55 16 76 12
25 -4 -62 -19 -106 -57 -136 -117 -53 -105 -25 -189 102 -310 123 -117 146
-105 156 82 3 63 14 155 22 203 l16 88 -27 29 c-15 16 -37 31 -49 33 -11 2 2
5 30 6 61 1 72 11 120 111 128 267 355 461 637 546 115 34 119 29 7 -9 -333
-113 -575 -353 -684 -680 -50 -150 -56 -200 -56 -508 l0 -276 24 -22 c19 -18
30 -21 67 -16 l44 6 -41 -19 c-118 -56 -119 -206 -2 -266 l33 -17 -39 6 c-31
5 -43 2 -62 -16 -23 -21 -24 -29 -24 -144 0 -143 14 -207 71 -316 80 -153 240
-294 453 -398 240 -118 421 -160 731 -168 130 -3 250 -1 314 6 57 6 106 10
107 8 2 -2 -58 -14 -134 -26 -172 -29 -195 -40 -78 -41 208 0 504 69 691 162
207 104 408 293 471 444 13 32 13 39 0 59 -15 22 -19 23 -114 18 -79 -5 -110
-2 -152 12 -65 22 -133 82 -166 147 -47 93 -54 144 -54 407 l0 245 183 185
c202 204 217 228 217 340 0 130 -101 243 -235 265 -53 9 -130 -8 -177 -39 -21
-14 -39 -25 -42 -25 -2 0 -6 14 -10 30 -18 95 -129 279 -237 394 -187 201
-477 337 -712 336 -75 -1 -62 -12 42 -38 l70 -17 -198 0 -198 0 66 16 c36 9
77 21 91 27 39 17 -109 14 -190 -4z m552 -70 c299 -94 533 -308 653 -596 15
-37 38 -77 51 -89 24 -22 28 -22 99 7 11 4 -14 -23 -55 -62 -41 -38 -138 -131
-214 -206 -77 -76 -142 -136 -145 -133 -2 3 62 72 142 154 111 112 147 155
147 174 0 41 -40 157 -78 227 -125 230 -321 405 -562 500 -28 11 -64 22 -82
25 -33 6 -71 24 -51 25 7 0 49 -12 95 -26z m-70 -38 c323 -83 581 -323 694
-646 l23 -65 -159 -160 c-95 -95 -160 -168 -160 -179 0 -24 28 -56 49 -56 9 0
106 90 216 201 124 125 215 208 240 220 51 24 99 24 151 0 95 -43 128 -172 66
-258 -11 -15 -106 -113 -211 -218 -193 -191 -210 -216 -176 -245 12 -10 15
-49 15 -230 0 -182 3 -229 19 -292 54 -211 188 -337 368 -346 l73 -4 -48 -61
c-199 -255 -579 -407 -1052 -424 -491 -17 -928 129 -1180 394 -133 139 -180
259 -180 465 l0 117 37 -16 c79 -33 186 5 234 84 33 53 34 152 2 204 -50 80
-157 119 -237 85 l-38 -16 4 308 c4 295 6 311 31 407 33 120 107 276 175 366
147 193 382 339 619 384 115 22 301 14 425 -19z m1147 -692 c34 -38 51 -74 51
-102 -1 -9 -7 1 -15 22 -7 21 -35 61 -62 89 -26 27 -38 45 -27 39 12 -6 36
-28 53 -48z m-2463 13 c3 -3 -2 -38 -11 -78 -9 -41 -19 -138 -22 -216 l-6
-141 -86 90 c-94 98 -110 124 -111 180 0 72 35 126 105 160 37 17 116 20 131
5z m2498 -269 c-9 -18 -95 -112 -190 -209 -95 -96 -176 -187 -179 -200 -3 -14
-5 -144 -3 -290 3 -248 5 -267 26 -321 57 -142 132 -210 281 -254 8 -3 12 -7
9 -9 -3 -3 -33 3 -67 14 -96 30 -162 86 -207 173 -46 91 -56 150 -64 398 -4
129 -11 246 -15 260 -6 23 14 46 193 226 168 168 202 208 214 245 9 32 14 38
16 22 2 -12 -4 -37 -14 -55z m-2258 -534 c48 -23 74 -70 74 -134 0 -64 -26
-111 -74 -134 -44 -21 -71 -21 -31 0 122 63 127 195 10 261 -46 26 -30 31 21
7z m-27 -48 c67 -35 65 -143 -4 -174 -51 -23 -107 -7 -131 39 -47 91 44 182
135 135z m2385 -733 c-115 -199 -306 -348 -582 -453 -18 -7 -35 -10 -38 -8 -2
3 17 13 43 23 67 25 193 89 255 129 107 69 252 213 265 263 7 31 -30 72 -66
75 -33 1 49 14 107 16 l44 2 -28 -47z"/>
<path d="M735 2137 c-64 -22 -98 -43 -144 -88 -81 -82 -112 -178 -61 -194 33
-11 56 3 75 45 20 45 76 105 118 126 41 22 115 28 166 14 53 -14 131 -84 156
-140 19 -42 42 -56 75 -45 78 25 -38 210 -168 267 -57 26 -162 33 -217 15z
m-33 -78 c-31 -17 -70 -52 -95 -84 -48 -62 -65 -55 -20 8 30 42 123 107 153
107 8 0 -9 -14 -38 -31z m244 16 c63 -26 145 -109 143 -144 0 -11 -5 -8 -17 9
-37 54 -88 103 -131 125 -52 27 -49 33 5 10z"/>
<path d="M1585 2137 c-64 -22 -98 -43 -144 -88 -81 -82 -112 -178 -61 -194 33
-11 56 3 75 45 20 45 76 105 118 126 41 22 115 28 166 14 53 -14 131 -84 156
-140 19 -42 42 -56 75 -45 77 24 -28 198 -157 261 -64 32 -167 41 -228 21z
m193 -54 c63 -15 171 -120 160 -154 -2 -7 -14 3 -25 22 -33 52 -82 95 -143
124 -30 14 -47 23 -37 20 11 -3 31 -8 45 -12z m-218 -19 c-55 -31 -107 -79
-127 -119 -9 -16 -18 -25 -20 -18 -11 30 71 119 137 150 47 22 55 13 10 -13z"/>
<path d="M932 1589 c-47 -14 -109 -79 -122 -131 -8 -27 -11 -101 -8 -198 l3
-156 37 -76 c45 -91 103 -147 196 -191 61 -29 76 -32 162 -32 86 0 101 3 162
32 88 41 160 113 201 201 31 65 32 73 35 220 3 105 0 168 -9 200 -16 57 -70
113 -125 130 -50 14 -481 15 -532 1z m13 -62 c-22 -12 -50 -38 -63 -57 -23
-34 -23 -41 -20 -200 3 -161 4 -166 33 -218 47 -87 147 -172 199 -172 35 0 56
41 56 109 0 76 24 137 64 169 29 22 94 47 102 39 3 -3 -10 -10 -30 -17 -37
-12 -101 -75 -116 -116 -36 -93 31 -218 106 -200 90 23 205 119 226 187 9 33
8 41 -11 67 -24 35 -79 72 -107 73 -11 0 -13 3 -7 6 7 2 36 -3 64 -12 50 -17
51 -17 75 6 23 21 24 29 24 134 0 100 -2 116 -23 146 -12 18 -40 44 -62 56
-46 26 -30 31 21 7 18 -9 44 -33 56 -53 21 -34 23 -47 23 -201 0 -158 -1 -167
-27 -222 -68 -147 -242 -240 -388 -209 -124 27 -219 101 -267 209 -24 54 -25
65 -24 227 2 191 9 213 71 246 50 27 73 23 25 -4z m504 -41 c41 -22 51 -55 51
-176 l0 -110 -41 21 c-113 60 -258 17 -324 -96 -31 -53 -44 -149 -25 -184 17
-32 8 -35 -39 -12 -60 31 -104 73 -137 133 -28 51 -29 59 -32 201 -4 163 3
198 47 222 38 21 460 21 500 1z m-33 -352 c70 -34 69 -70 -5 -143 -41 -42
-134 -91 -170 -91 -19 0 -43 73 -38 116 11 104 118 163 213 118z"/>
<path d="M1882 1439 c-47 -14 -109 -80 -123 -131 -23 -89 12 -182 88 -229 57
-36 154 -34 210 3 63 41 88 90 88 170 0 58 -4 72 -30 109 -50 71 -148 104
-233 78z m13 -62 c-74 -42 -104 -121 -71 -185 19 -37 57 -71 92 -83 l29 -9
-32 5 c-74 10 -113 64 -113 152 0 59 28 109 73 128 51 22 66 17 22 -8z m131 7
c48 -23 74 -70 74 -134 0 -64 -26 -111 -74 -134 -44 -21 -71 -21 -31 0 122 63
126 201 7 263 -44 24 -24 28 24 5z m-27 -48 c67 -35 65 -143 -4 -174 -91 -41
-179 51 -131 137 26 47 84 63 135 37z"/>
<path d="M10 1980 c0 -60 30 -104 160 -235 l129 -130 3 -415 3 -415 27 -76
c62 -177 187 -327 368 -444 222 -144 529 -241 795 -251 138 -6 138 5 0 31
-269 49 -319 60 -420 92 -307 97 -550 275 -658 481 -68 130 -70 142 -74 595
l-4 409 -130 135 c-90 93 -138 151 -156 189 -31 66 -43 75 -43 34z"/>
</g>
</svg>
